<?xml version="1.0" encoding="UTF-8"?>
<svg xmlns="http://www.w3.org/2000/svg" xmlns:xlink="http://www.w3.org/1999/xlink" width="32px" height="32px" viewBox="0 0 32 32" version="1.1">
<g id="surface1">
<path style=" stroke:none;fill-rule:nonzero;fill:rgb(99.607843%,79.607844%,30.19608%);fill-opacity:1;" d="M 8.671875 1.109375 C 8.78125 1.21875 8.890625 1.328125 9 1.4375 C 9.09375 1.53125 9.191406 1.625 9.285156 1.71875 C 10.0625 2.488281 10.0625 2.488281 10.339844 2.8125 C 10.546875 3.050781 10.773438 3.257812 11.011719 3.464844 C 11.320312 3.746094 11.613281 4.039062 11.90625 4.335938 C 12.011719 4.441406 12.121094 4.546875 12.226562 4.65625 C 12.796875 5.226562 12.796875 5.226562 13.042969 5.515625 C 13.242188 5.75 13.46875 5.949219 13.699219 6.152344 C 14.007812 6.433594 14.300781 6.726562 14.59375 7.023438 C 14.699219 7.128906 14.808594 7.234375 14.914062 7.34375 C 15.484375 7.914062 15.484375 7.914062 15.738281 8.210938 C 15.90625 8.410156 16.089844 8.574219 16.289062 8.742188 C 16.597656 9.015625 16.882812 9.3125 17.171875 9.601562 C 17.285156 9.714844 17.398438 9.828125 17.511719 9.941406 C 18.113281 10.542969 18.113281 10.542969 18.355469 10.832031 C 18.558594 11.066406 18.78125 11.261719 19.011719 11.464844 C 19.320312 11.746094 19.613281 12.039062 19.90625 12.335938 C 20.011719 12.441406 20.121094 12.546875 20.226562 12.65625 C 20.796875 13.226562 20.796875 13.226562 21.042969 13.515625 C 21.242188 13.75 21.46875 13.949219 21.699219 14.152344 C 22.007812 14.433594 22.300781 14.726562 22.59375 15.023438 C 22.699219 15.128906 22.808594 15.234375 22.914062 15.34375 C 23.484375 15.914062 23.484375 15.914062 23.738281 16.210938 C 23.90625 16.410156 24.089844 16.574219 24.289062 16.742188 C 24.597656 17.015625 24.882812 17.3125 25.171875 17.601562 C 25.285156 17.714844 25.398438 17.828125 25.511719 17.941406 C 25.84375 18.273438 26.171875 18.605469 26.476562 18.964844 C 26.59375 19.097656 26.71875 19.210938 26.851562 19.324219 C 27.105469 19.550781 27.355469 19.78125 27.601562 20.019531 C 27.632812 20.050781 27.664062 20.078125 27.699219 20.109375 C 28.3125 20.714844 28.640625 21.457031 28.957031 22.242188 C 29.015625 22.378906 29.070312 22.519531 29.128906 22.65625 C 29.164062 22.742188 29.199219 22.828125 29.234375 22.914062 C 29.304688 23.089844 29.382812 23.265625 29.472656 23.4375 C 29.578125 23.65625 29.648438 23.878906 29.71875 24.109375 C 29.734375 24.15625 29.75 24.203125 29.765625 24.25 C 29.8125 24.40625 29.859375 24.558594 29.90625 24.714844 C 29.9375 24.824219 29.972656 24.929688 30.003906 25.039062 C 30.179688 25.605469 30.34375 26.171875 30.503906 26.742188 C 30.519531 26.796875 30.535156 26.851562 30.550781 26.90625 C 30.621094 27.171875 30.695312 27.433594 30.765625 27.695312 C 30.894531 28.164062 31.027344 28.601562 31.242188 29.039062 C 31.351562 29.269531 31.433594 29.503906 31.515625 29.746094 C 31.539062 29.8125 31.539062 29.8125 31.5625 29.882812 C 31.691406 30.253906 31.757812 30.546875 31.761719 30.9375 C 31.761719 31.011719 31.761719 31.089844 31.765625 31.167969 C 31.75 31.363281 31.734375 31.464844 31.625 31.625 C 31.296875 31.84375 30.882812 31.792969 30.5 31.75 C 30.015625 31.644531 29.566406 31.46875 29.113281 31.265625 C 28.398438 30.949219 27.660156 30.734375 26.902344 30.53125 C 26.535156 30.433594 26.171875 30.328125 25.804688 30.226562 C 25.734375 30.207031 25.664062 30.1875 25.589844 30.167969 C 25.050781 30.015625 24.519531 29.855469 23.988281 29.679688 C 23.925781 29.660156 23.863281 29.636719 23.800781 29.617188 C 23.46875 29.503906 23.164062 29.367188 22.851562 29.207031 C 22.671875 29.117188 22.484375 29.039062 22.296875 28.960938 C 22.226562 28.933594 22.160156 28.90625 22.089844 28.878906 C 21.949219 28.820312 21.808594 28.765625 21.671875 28.710938 C 20.902344 28.394531 20.339844 27.933594 19.765625 27.34375 C 19.714844 27.292969 19.664062 27.242188 19.613281 27.191406 C 19.390625 26.964844 19.175781 26.738281 18.972656 26.5 C 18.765625 26.257812 18.535156 26.054688 18.300781 25.847656 C 17.992188 25.566406 17.699219 25.273438 17.40625 24.976562 C 17.300781 24.871094 17.191406 24.765625 17.085938 24.65625 C 16.515625 24.085938 16.515625 24.085938 16.261719 23.789062 C 16.09375 23.589844 15.910156 23.425781 15.710938 23.257812 C 15.402344 22.984375 15.117188 22.6875 14.828125 22.398438 C 14.714844 22.285156 14.601562 22.171875 14.488281 22.058594 C 13.886719 21.457031 13.886719 21.457031 13.644531 21.167969 C 13.441406 20.933594 13.21875 20.738281 12.988281 20.535156 C 12.679688 20.253906 12.386719 19.960938 12.09375 19.664062 C 11.988281 19.558594 11.878906 19.453125 11.773438 19.34375 C 11.203125 18.773438 11.203125 18.773438 10.957031 18.484375 C 10.757812 18.25 10.53125 18.050781 10.300781 17.847656 C 9.992188 17.566406 9.699219 17.273438 9.40625 16.976562 C 9.300781 16.871094 9.191406 16.765625 9.085938 16.65625 C 8.515625 16.085938 8.515625 16.085938 8.261719 15.789062 C 8.09375 15.589844 7.910156 15.425781 7.710938 15.257812 C 7.402344 14.984375 7.117188 14.6875 6.828125 14.398438 C 6.714844 14.285156 6.601562 14.171875 6.488281 14.058594 C 5.886719 13.457031 5.886719 13.457031 5.644531 13.167969 C 5.441406 12.933594 5.21875 12.738281 4.988281 12.535156 C 4.679688 12.253906 4.386719 11.960938 4.09375 11.664062 C 3.988281 11.558594 3.878906 11.453125 3.773438 11.34375 C 3.203125 10.773438 3.203125 10.773438 2.957031 10.484375 C 2.753906 10.246094 2.523438 10.042969 2.289062 9.835938 C 2.007812 9.582031 1.742188 9.316406 1.476562 9.046875 C 1.421875 8.992188 1.367188 8.9375 1.3125 8.882812 C 1.257812 8.828125 1.207031 8.777344 1.152344 8.722656 C 1.105469 8.675781 1.058594 8.628906 1.007812 8.578125 C 0.761719 8.316406 0.589844 8.078125 0.457031 7.746094 C 0.429688 7.683594 0.40625 7.617188 0.378906 7.550781 C 0.167969 6.984375 0.121094 6.132812 0.371094 5.570312 C 0.394531 5.527344 0.414062 5.484375 0.4375 5.4375 C 0.457031 5.394531 0.476562 5.351562 0.5 5.308594 C 0.804688 4.746094 1.269531 4.328125 1.722656 3.882812 C 1.804688 3.800781 1.886719 3.71875 1.972656 3.636719 C 2.050781 3.558594 2.132812 3.476562 2.210938 3.398438 C 2.246094 3.363281 2.285156 3.324219 2.324219 3.289062 C 2.519531 3.097656 2.722656 2.921875 2.9375 2.75 C 3.003906 2.679688 3.066406 2.609375 3.128906 2.535156 C 3.417969 2.195312 3.726562 1.878906 4.042969 1.5625 C 4.109375 1.492188 4.179688 1.421875 4.246094 1.351562 C 5.515625 0.0390625 7.269531 -0.238281 8.671875 1.109375 Z M 8.671875 1.109375 "/>
<path style=" stroke:none;fill-rule:nonzero;fill:rgb(79.215688%,83.137256%,85.882354%);fill-opacity:1;" d="M 8.671875 1.109375 C 8.78125 1.21875 8.890625 1.328125 9 1.4375 C 9.09375 1.53125 9.191406 1.625 9.285156 1.71875 C 10.0625 2.488281 10.0625 2.488281 10.339844 2.8125 C 10.546875 3.050781 10.773438 3.257812 11.011719 3.464844 C 11.320312 3.746094 11.613281 4.039062 11.90625 4.335938 C 12.011719 4.441406 12.121094 4.546875 12.226562 4.65625 C 12.550781 4.976562 12.863281 5.300781 13.160156 5.648438 C 13.289062 5.792969 13.429688 5.921875 13.578125 6.046875 C 13.765625 6.207031 13.917969 6.363281 14.0625 6.5625 C 14.035156 6.585938 14.007812 6.609375 13.976562 6.632812 C 13.589844 6.964844 13.230469 7.324219 12.871094 7.683594 C 12.800781 7.753906 12.734375 7.820312 12.667969 7.890625 C 12.480469 8.074219 12.296875 8.257812 12.113281 8.441406 C 11.921875 8.632812 11.730469 8.828125 11.535156 9.019531 C 11.171875 9.382812 10.808594 9.75 10.445312 10.113281 C 10.027344 10.53125 9.613281 10.945312 9.199219 11.359375 C 8.382812 12.179688 7.566406 12.996094 6.746094 13.816406 C 6.664062 13.898438 6.582031 13.980469 6.5 14.0625 C 5.902344 13.476562 5.902344 13.476562 5.65625 13.183594 C 5.503906 13.003906 5.339844 12.847656 5.164062 12.691406 C 4.792969 12.363281 4.445312 12.015625 4.09375 11.664062 C 3.988281 11.558594 3.878906 11.453125 3.773438 11.34375 C 3.203125 10.773438 3.203125 10.773438 2.957031 10.484375 C 2.753906 10.246094 2.523438 10.042969 2.289062 9.835938 C 2.007812 9.582031 1.742188 9.316406 1.476562 9.046875 C 1.421875 8.992188 1.367188 8.9375 1.3125 8.882812 C 1.257812 8.828125 1.207031 8.777344 1.152344 8.722656 C 1.105469 8.675781 1.058594 8.628906 1.007812 8.578125 C 0.761719 8.316406 0.589844 8.078125 0.457031 7.746094 C 0.429688 7.683594 0.40625 7.617188 0.378906 7.550781 C 0.167969 6.984375 0.121094 6.132812 0.371094 5.570312 C 0.394531 5.527344 0.414062 5.484375 0.4375 5.4375 C 0.457031 5.394531 0.476562 5.351562 0.5 5.308594 C 0.804688 4.746094 1.269531 4.328125 1.722656 3.882812 C 1.804688 3.800781 1.886719 3.71875 1.972656 3.636719 C 2.050781 3.558594 2.132812 3.476562 2.210938 3.398438 C 2.246094 3.363281 2.285156 3.324219 2.324219 3.289062 C 2.519531 3.097656 2.722656 2.921875 2.9375 2.75 C 3.003906 2.679688 3.066406 2.609375 3.128906 2.535156 C 3.417969 2.195312 3.726562 1.878906 4.042969 1.5625 C 4.109375 1.492188 4.179688 1.421875 4.246094 1.351562 C 5.515625 0.0390625 7.269531 -0.238281 8.671875 1.109375 Z M 8.671875 1.109375 "/>
<path style=" stroke:none;fill-rule:nonzero;fill:rgb(85.09804%,61.960787%,50.588238%);fill-opacity:1;" d="M 28 20.4375 C 28.445312 20.972656 28.699219 21.605469 28.957031 22.242188 C 29.015625 22.378906 29.070312 22.519531 29.128906 22.65625 C 29.164062 22.742188 29.199219 22.828125 29.234375 22.914062 C 29.304688 23.089844 29.382812 23.265625 29.472656 23.4375 C 29.578125 23.65625 29.648438 23.878906 29.71875 24.109375 C 29.734375 24.15625 29.75 24.203125 29.765625 24.25 C 29.8125 24.40625 29.859375 24.558594 29.90625 24.714844 C 29.9375 24.824219 29.972656 24.929688 30.003906 25.039062 C 30.179688 25.605469 30.34375 26.171875 30.503906 26.742188 C 30.519531 26.796875 30.535156 26.851562 30.550781 26.90625 C 30.621094 27.171875 30.695312 27.433594 30.765625 27.695312 C 30.894531 28.164062 31.027344 28.601562 31.242188 29.039062 C 31.351562 29.269531 31.433594 29.503906 31.515625 29.746094 C 31.53125 29.792969 31.546875 29.835938 31.5625 29.882812 C 31.691406 30.253906 31.757812 30.546875 31.761719 30.9375 C 31.761719 31.011719 31.761719 31.089844 31.765625 31.167969 C 31.75 31.363281 31.734375 31.464844 31.625 31.625 C 31.296875 31.84375 30.882812 31.792969 30.5 31.75 C 30.015625 31.644531 29.566406 31.46875 29.113281 31.265625 C 28.398438 30.949219 27.660156 30.734375 26.902344 30.53125 C 26.535156 30.433594 26.171875 30.328125 25.804688 30.226562 C 25.734375 30.207031 25.664062 30.1875 25.589844 30.167969 C 25.050781 30.015625 24.519531 29.855469 23.988281 29.679688 C 23.925781 29.660156 23.863281 29.636719 23.800781 29.617188 C 23.46875 29.503906 23.164062 29.367188 22.851562 29.207031 C 22.671875 29.117188 22.484375 29.039062 22.296875 28.960938 C 22.226562 28.933594 22.160156 28.90625 22.089844 28.878906 C 21.949219 28.820312 21.808594 28.765625 21.671875 28.710938 C 21.183594 28.511719 20.785156 28.261719 20.375 27.9375 C 20.4375 27.90625 20.4375 27.90625 20.5 27.875 C 20.519531 27.835938 20.539062 27.796875 20.558594 27.757812 C 20.632812 27.613281 20.707031 27.535156 20.828125 27.425781 C 20.867188 27.386719 20.90625 27.351562 20.949219 27.3125 C 20.988281 27.277344 21.03125 27.238281 21.074219 27.199219 C 21.472656 26.835938 21.863281 26.476562 22.214844 26.070312 C 22.453125 25.792969 22.707031 25.535156 22.964844 25.277344 C 23.007812 25.234375 23.054688 25.1875 23.101562 25.140625 C 23.355469 24.886719 23.613281 24.648438 23.886719 24.414062 C 24.046875 24.273438 24.195312 24.125 24.347656 23.972656 C 24.402344 23.917969 24.457031 23.863281 24.511719 23.808594 C 24.644531 23.671875 24.769531 23.53125 24.894531 23.386719 C 25.136719 23.109375 25.390625 22.847656 25.652344 22.589844 C 25.695312 22.546875 25.742188 22.5 25.789062 22.453125 C 26.042969 22.199219 26.304688 21.957031 26.574219 21.722656 C 26.96875 21.378906 27.328125 20.996094 27.664062 20.59375 C 27.773438 20.472656 27.835938 20.4375 28 20.4375 Z M 28 20.4375 "/>
<path style=" stroke:none;fill-rule:nonzero;fill:rgb(91.37255%,34.901962%,43.137255%);fill-opacity:1;" d="M 8.71875 1.15625 C 8.8125 1.25 8.90625 1.34375 9 1.4375 C 9.070312 1.507812 9.140625 1.578125 9.210938 1.648438 C 9.265625 1.703125 9.320312 1.757812 9.375 1.8125 C 9.277344 2.046875 9.136719 2.191406 8.957031 2.371094 C 8.925781 2.398438 8.898438 2.429688 8.867188 2.460938 C 8.765625 2.5625 8.664062 2.660156 8.566406 2.761719 C 8.492188 2.835938 8.421875 2.90625 8.347656 2.976562 C 8.152344 3.175781 7.957031 3.371094 7.761719 3.566406 C 7.554688 3.769531 7.351562 3.972656 7.148438 4.175781 C 6.757812 4.5625 6.371094 4.949219 5.984375 5.335938 C 5.542969 5.777344 5.101562 6.21875 4.660156 6.660156 C 3.753906 7.5625 2.84375 8.46875 1.9375 9.375 C 1.761719 9.289062 1.632812 9.210938 1.496094 9.070312 C 1.441406 9.019531 1.441406 9.019531 1.390625 8.964844 C 1.351562 8.929688 1.316406 8.894531 1.28125 8.855469 C 1.246094 8.820312 1.210938 8.785156 1.171875 8.746094 C 0.867188 8.4375 0.621094 8.15625 0.457031 7.746094 C 0.429688 7.683594 0.40625 7.617188 0.378906 7.550781 C 0.167969 6.984375 0.121094 6.132812 0.371094 5.570312 C 0.394531 5.527344 0.414062 5.484375 0.4375 5.4375 C 0.457031 5.394531 0.476562 5.351562 0.5 5.308594 C 0.804688 4.746094 1.269531 4.328125 1.722656 3.882812 C 1.804688 3.800781 1.886719 3.71875 1.972656 3.636719 C 2.050781 3.558594 2.132812 3.476562 2.210938 3.398438 C 2.246094 3.363281 2.285156 3.324219 2.324219 3.289062 C 2.519531 3.097656 2.722656 2.921875 2.9375 2.75 C 3.003906 2.679688 3.066406 2.609375 3.128906 2.535156 C 3.417969 2.195312 3.726562 1.878906 4.042969 1.5625 C 4.109375 1.492188 4.179688 1.421875 4.246094 1.351562 C 5.550781 0 7.300781 -0.203125 8.71875 1.15625 Z M 8.71875 1.15625 "/>
<path style=" stroke:none;fill-rule:nonzero;fill:rgb(79.607844%,83.529413%,85.882354%);fill-opacity:1;" d="M 13 5.5625 C 13.394531 5.835938 13.730469 6.152344 14.0625 6.5 C 11.542969 9.019531 9.019531 11.542969 6.5 14.0625 C 6.402344 13.964844 6.300781 13.867188 6.203125 13.769531 C 6.148438 13.714844 6.09375 13.660156 6.035156 13.605469 C 5.886719 13.453125 5.753906 13.292969 5.625 13.125 C 5.722656 12.894531 5.863281 12.75 6.039062 12.574219 C 6.066406 12.542969 6.097656 12.515625 6.125 12.484375 C 6.226562 12.386719 6.324219 12.285156 6.421875 12.1875 C 6.492188 12.117188 6.566406 12.046875 6.636719 11.976562 C 6.789062 11.824219 6.941406 11.671875 7.09375 11.519531 C 7.332031 11.28125 7.574219 11.042969 7.816406 10.800781 C 8.195312 10.421875 8.574219 10.042969 8.957031 9.664062 C 9.640625 8.984375 10.320312 8.304688 11.003906 7.621094 C 11.242188 7.382812 11.480469 7.144531 11.722656 6.90625 C 11.871094 6.757812 12.019531 6.609375 12.167969 6.460938 C 12.238281 6.394531 12.304688 6.324219 12.375 6.253906 C 12.46875 6.160156 12.5625 6.066406 12.65625 5.972656 C 12.710938 5.921875 12.761719 5.867188 12.816406 5.8125 C 12.941406 5.695312 12.941406 5.695312 13 5.5625 Z M 13 5.5625 "/>
<path style=" stroke:none;fill-rule:nonzero;fill:rgb(79.607844%,83.137256%,85.882354%);fill-opacity:1;" d="M 9.375 1.875 C 9.445312 1.933594 9.515625 1.996094 9.585938 2.054688 C 9.625 2.085938 9.664062 2.121094 9.703125 2.15625 C 9.832031 2.265625 9.949219 2.382812 10.0625 2.507812 C 10.101562 2.546875 10.136719 2.589844 10.175781 2.628906 C 10.25 2.75 10.25 2.75 10.242188 2.863281 C 10.164062 3.054688 10.046875 3.164062 9.902344 3.308594 C 9.871094 3.335938 9.84375 3.367188 9.8125 3.398438 C 9.710938 3.5 9.609375 3.597656 9.507812 3.699219 C 9.4375 3.773438 9.363281 3.84375 9.292969 3.914062 C 9.097656 4.113281 8.902344 4.308594 8.703125 4.503906 C 8.5 4.707031 8.292969 4.910156 8.089844 5.113281 C 7.703125 5.5 7.3125 5.886719 6.925781 6.273438 C 6.484375 6.714844 6.042969 7.15625 5.601562 7.597656 C 4.691406 8.5 3.785156 9.40625 2.875 10.3125 C 2.792969 10.253906 2.714844 10.195312 2.636719 10.132812 C 2.589844 10.101562 2.546875 10.066406 2.5 10.035156 C 2.351562 9.921875 2.222656 9.796875 2.09375 9.664062 C 2.050781 9.621094 2.011719 9.578125 1.964844 9.535156 C 1.921875 9.484375 1.921875 9.484375 1.875 9.4375 C 2.207031 9.03125 2.574219 8.664062 2.945312 8.296875 C 3.015625 8.226562 3.085938 8.15625 3.15625 8.085938 C 3.347656 7.894531 3.535156 7.707031 3.726562 7.515625 C 3.925781 7.320312 4.125 7.121094 4.324219 6.921875 C 4.699219 6.546875 5.074219 6.171875 5.449219 5.796875 C 5.878906 5.367188 6.304688 4.941406 6.734375 4.511719 C 7.613281 3.632812 8.496094 2.753906 9.375 1.875 Z M 9.375 1.875 "/>
<path style=" stroke:none;fill-rule:nonzero;fill:rgb(60.000002%,66.666669%,70.980394%);fill-opacity:1;" d="M 12.0625 4.6875 C 12.296875 4.722656 12.402344 4.820312 12.566406 4.988281 C 12.628906 5.050781 12.628906 5.050781 12.695312 5.117188 C 12.925781 5.375 12.925781 5.375 13 5.5 C 12.980469 5.757812 12.828125 5.882812 12.652344 6.058594 C 12.621094 6.085938 12.59375 6.117188 12.5625 6.148438 C 12.460938 6.25 12.359375 6.347656 12.257812 6.449219 C 12.1875 6.523438 12.113281 6.59375 12.042969 6.664062 C 11.847656 6.863281 11.652344 7.058594 11.453125 7.253906 C 11.25 7.457031 11.042969 7.660156 10.839844 7.863281 C 10.453125 8.25 10.0625 8.636719 9.675781 9.023438 C 9.234375 9.464844 8.792969 9.90625 8.351562 10.347656 C 7.441406 11.25 6.535156 12.15625 5.625 13.0625 C 5.542969 13.003906 5.464844 12.945312 5.386719 12.882812 C 5.339844 12.851562 5.296875 12.816406 5.25 12.785156 C 5.101562 12.671875 4.972656 12.546875 4.84375 12.414062 C 4.800781 12.371094 4.761719 12.328125 4.714844 12.285156 C 4.671875 12.234375 4.671875 12.234375 4.625 12.1875 C 4.832031 11.980469 5.035156 11.777344 5.242188 11.570312 C 5.304688 11.511719 5.363281 11.449219 5.425781 11.390625 C 5.472656 11.339844 5.472656 11.339844 5.519531 11.292969 C 6.253906 10.558594 6.988281 9.828125 7.722656 9.09375 C 8.148438 8.667969 8.570312 8.246094 8.996094 7.820312 C 9.367188 7.453125 9.734375 7.082031 10.105469 6.710938 C 10.304688 6.515625 10.5 6.320312 10.695312 6.125 C 10.878906 5.941406 11.0625 5.757812 11.246094 5.574219 C 11.316406 5.503906 11.382812 5.4375 11.449219 5.371094 C 11.542969 5.277344 11.632812 5.1875 11.726562 5.09375 C 11.777344 5.042969 11.828125 4.992188 11.882812 4.9375 C 12.003906 4.820312 12.003906 4.820312 12.0625 4.6875 Z M 12.0625 4.6875 "/>
<path style=" stroke:none;fill-rule:nonzero;fill:rgb(60.000002%,66.666669%,70.980394%);fill-opacity:1;" d="M 10.25 2.8125 C 10.621094 3.070312 10.9375 3.359375 11.25 3.6875 C 10.921875 4.085938 10.558594 4.453125 10.195312 4.816406 C 10.125 4.886719 10.054688 4.957031 9.988281 5.027344 C 9.765625 5.25 9.539062 5.476562 9.316406 5.703125 C 9.238281 5.777344 9.160156 5.855469 9.082031 5.933594 C 8.761719 6.257812 8.441406 6.578125 8.117188 6.902344 C 7.660156 7.363281 7.199219 7.828125 6.738281 8.289062 C 6.414062 8.613281 6.089844 8.941406 5.765625 9.265625 C 5.574219 9.460938 5.378906 9.652344 5.1875 9.847656 C 5.003906 10.03125 4.824219 10.214844 4.640625 10.394531 C 4.574219 10.460938 4.507812 10.527344 4.441406 10.597656 C 4.351562 10.6875 4.261719 10.777344 4.167969 10.871094 C 4.117188 10.921875 4.066406 10.972656 4.015625 11.023438 C 3.875 11.125 3.875 11.125 3.742188 11.121094 C 3.542969 11.023438 3.394531 10.867188 3.234375 10.714844 C 3.199219 10.683594 3.164062 10.648438 3.128906 10.617188 C 3.042969 10.535156 2.960938 10.457031 2.875 10.375 C 2.972656 10.144531 3.113281 10 3.289062 9.824219 C 3.316406 9.792969 3.347656 9.765625 3.375 9.734375 C 3.476562 9.636719 3.574219 9.535156 3.671875 9.4375 C 3.742188 9.367188 3.816406 9.296875 3.886719 9.226562 C 4.039062 9.074219 4.191406 8.921875 4.34375 8.769531 C 4.582031 8.53125 4.824219 8.292969 5.066406 8.050781 C 5.445312 7.671875 5.824219 7.292969 6.207031 6.914062 C 6.890625 6.234375 7.570312 5.554688 8.253906 4.871094 C 8.492188 4.632812 8.730469 4.394531 8.972656 4.15625 C 9.121094 4.007812 9.269531 3.859375 9.417969 3.710938 C 9.488281 3.644531 9.554688 3.574219 9.625 3.503906 C 9.71875 3.410156 9.8125 3.316406 9.90625 3.222656 C 9.960938 3.171875 10.011719 3.117188 10.066406 3.0625 C 10.191406 2.945312 10.191406 2.945312 10.25 2.8125 Z M 10.25 2.8125 "/>
<path style=" stroke:none;fill-rule:nonzero;fill:rgb(16.470589%,18.82353%,20%);fill-opacity:1;" d="M 31 28.5 C 31.199219 28.90625 31.367188 29.320312 31.515625 29.746094 C 31.539062 29.816406 31.539062 29.816406 31.566406 29.886719 C 31.691406 30.253906 31.757812 30.546875 31.761719 30.9375 C 31.761719 31.011719 31.761719 31.089844 31.765625 31.167969 C 31.75 31.363281 31.734375 31.464844 31.625 31.625 C 31.277344 31.855469 30.777344 31.804688 30.375 31.726562 C 29.722656 31.566406 29.109375 31.28125 28.5 31 C 28.527344 30.304688 28.695312 29.695312 29.1875 29.1875 C 29.722656 28.75 30.308594 28.496094 31 28.5 Z M 31 28.5 "/>
</g>
</svg>
