<?xml version="1.0" encoding="UTF-8"?>
<svg version="1.1" xmlns="http://www.w3.org/2000/svg" width="512" height="512">
<path d="M0 0 C1.75777021 1.73492156 3.49785656 3.48668946 5.23950195 5.23779297 C6.76314545 6.73890632 8.28795369 8.23883806 9.8137207 9.73779297 C22.26691824 22.03818279 22.26691824 22.03818279 26.65356445 27.22216797 C29.96309297 31.06596171 33.63432084 34.34632712 37.43334961 37.69824219 C42.36068708 42.15745259 47.02838598 46.87878556 51.71777344 51.58569336 C53.43157428 53.30487967 55.15069278 55.0186188 56.87036133 56.73193359 C66.00892556 65.86686676 66.00892556 65.86686676 69.9152832 70.48388672 C73.12426833 74.24789729 76.72882542 77.4297093 80.43334961 80.69824219 C85.36068708 85.15745259 90.02838598 89.87878556 94.71777344 94.58569336 C96.43157428 96.30487967 98.15069278 98.0186188 99.87036133 99.73193359 C109.00597325 108.86391668 109.00597325 108.86391668 113.0402832 113.60888672 C115.74813295 116.78239153 118.68241551 119.42287896 121.85620117 122.12109375 C126.77116576 126.48625898 131.35558845 131.20711104 135.99414062 135.86206055 C137.7981228 137.6714023 139.6073886 139.47533616 141.41723633 141.27880859 C151.05017377 150.90809688 151.05017377 150.90809688 154.9543457 155.52294922 C158.14816332 159.27511968 161.74297823 162.44219644 165.43334961 165.69824219 C170.36068708 170.15745259 175.02838598 174.87878556 179.71777344 179.58569336 C181.43157428 181.30487967 183.15069278 183.0186188 184.87036133 184.73193359 C194.00892556 193.86686676 194.00892556 193.86686676 197.9152832 198.48388672 C201.12426833 202.24789729 204.72882542 205.4297093 208.43334961 208.69824219 C213.36068708 213.15745259 218.02838598 217.87878556 222.71777344 222.58569336 C224.43157428 224.30487967 226.15069278 226.0186188 227.87036133 227.73193359 C237.00597325 236.86391668 237.00597325 236.86391668 241.0402832 241.60888672 C243.74813295 244.78239153 246.68241551 247.42287896 249.85620117 250.12109375 C254.77116576 254.48625898 259.35558845 259.20711104 263.99414062 263.86206055 C265.7981228 265.6714023 267.6073886 267.47533616 269.41723633 269.27880859 C274.74564869 274.60479136 279.97748725 279.93649088 284.8671875 285.67407227 C286.71481477 287.77940097 288.7392645 289.60419727 290.86450195 291.42529297 C294.95054481 295.05041026 298.95080467 298.74078635 302.86450195 302.55029297 C303.37835449 303.03457764 303.89220703 303.5188623 304.42163086 304.01782227 C314.24801985 313.69353788 319.46578206 325.57188636 324.55200195 338.11279297 C325.46308519 340.3255274 326.37779303 342.53672393 327.29399109 344.74734497 C327.85654547 346.10815103 328.41557171 347.47042347 328.97029114 348.83444214 C330.13945611 351.69248328 331.35861114 354.46897815 332.7734375 357.21508789 C334.46930237 360.7115913 335.64484357 364.27661436 336.77075195 367.98388672 C337.00310043 368.73567703 337.23544891 369.48746735 337.47483826 370.26203918 C338.23551158 372.73138904 338.98772691 375.20322091 339.73950195 377.67529297 C340.27016129 379.4047916 340.80084197 381.13428368 341.33154297 382.86376953 C344.09486143 391.91339206 346.76145205 400.98525402 349.2980957 410.10107422 C349.54238312 410.97771225 349.78667053 411.85435028 350.0383606 412.7575531 C351.20664608 416.96107568 352.3615296 421.16770824 353.49731445 425.38012695 C355.53279503 432.84197069 357.70242015 439.86821968 361.09912109 446.85058594 C362.8543171 450.52481128 364.17247359 454.32687943 365.48950195 458.17529297 C365.87235352 459.26680664 365.87235352 459.26680664 366.26293945 460.38037109 C368.31834697 466.29237218 369.39377089 470.96376836 369.42700195 477.23779297 C369.44118164 478.45466797 369.45536133 479.67154297 369.4699707 480.92529297 C369.25211317 484.05653347 369.01038573 485.69619234 367.23950195 488.23779297 C362.00910539 491.72472401 355.33451127 490.91722268 349.23950195 490.23779297 C341.50163535 488.56242407 334.28901167 485.74854024 327.08276367 482.50794983 C315.60269078 477.4058259 303.79874876 474.01590113 291.69277954 470.73699951 C285.82885738 469.14640214 279.97774016 467.51004659 274.1262207 465.87451172 C272.99310959 465.55842957 271.85999847 465.24234741 270.69255066 464.91668701 C262.07945768 462.50246578 253.5372535 459.94555965 245.05200195 457.11279297 C244.05362305 456.78351807 243.05524414 456.45424316 242.02661133 456.11499023 C236.74053474 454.30524577 231.85292537 452.11107367 226.89404297 449.54541016 C223.96267878 448.10143089 220.9895999 446.85404568 217.9621582 445.62451172 C216.8709668 445.18042969 215.77977539 444.73634766 214.65551758 444.27880859 C212.42724973 443.37945529 210.19546769 442.48875841 207.96020508 441.60693359 C195.69591291 436.57821203 186.67392636 429.16431094 177.48950195 419.73779297 C176.69157227 418.93470703 175.89364258 418.13162109 175.0715332 417.30419922 C171.51559734 413.70155155 168.05727426 410.07040996 164.78637695 406.20654297 C161.49047237 402.37984967 157.82833743 399.11483693 154.0456543 395.77734375 C149.11831683 391.31813335 144.45061792 386.59680037 139.76123047 381.88989258 C138.04742962 380.17070627 136.32831113 378.45696714 134.60864258 376.74365234 C125.47303065 367.61166926 125.47303065 367.61166926 121.4387207 362.86669922 C118.73087095 359.69319441 115.79658839 357.05270698 112.62280273 354.35449219 C107.70783815 349.98932696 103.12341546 345.2684749 98.48486328 340.61352539 C96.6808811 338.80418364 94.87161531 337.00024978 93.06176758 335.19677734 C83.42883013 325.56748905 83.42883013 325.56748905 79.5246582 320.95263672 C76.33084059 317.20046626 72.73602568 314.03338949 69.0456543 310.77734375 C64.11831683 306.31813335 59.45061792 301.59680037 54.76123047 296.88989258 C53.04742962 295.17070627 51.32831113 293.45696714 49.60864258 291.74365234 C40.47007835 282.60871918 40.47007835 282.60871918 36.5637207 277.99169922 C33.35473557 274.22768864 29.75017849 271.04587664 26.0456543 267.77734375 C21.11831683 263.31813335 16.45061792 258.59680037 11.76123047 253.88989258 C10.04742962 252.17070627 8.32831113 250.45696714 6.60864258 248.74365234 C-2.52696935 239.61166926 -2.52696935 239.61166926 -6.5612793 234.86669922 C-9.26912905 231.69319441 -12.20341161 229.05270698 -15.37719727 226.35449219 C-20.29216185 221.98932696 -24.87658454 217.2684749 -29.51513672 212.61352539 C-31.3191189 210.80418364 -33.12838469 209.00024978 -34.93823242 207.19677734 C-44.57116987 197.56748905 -44.57116987 197.56748905 -48.4753418 192.95263672 C-51.66915941 189.20046626 -55.26397432 186.03338949 -58.9543457 182.77734375 C-63.88168317 178.31813335 -68.54938208 173.59680037 -73.23876953 168.88989258 C-74.95257038 167.17070627 -76.67168887 165.45696714 -78.39135742 163.74365234 C-87.52992165 154.60871918 -87.52992165 154.60871918 -91.4362793 149.99169922 C-94.69444899 146.16610951 -98.36509153 142.92340578 -102.12866211 139.60302734 C-106.62568152 135.56155016 -110.87094884 131.27169717 -115.13549805 126.98779297 C-116.01077148 126.11638672 -116.88604492 125.24498047 -117.7878418 124.34716797 C-118.63217773 123.50154297 -119.47651367 122.65591797 -120.34643555 121.78466797 C-121.09973145 121.03024414 -121.85302734 120.27582031 -122.62915039 119.49853516 C-126.5693092 115.31916854 -129.30667511 111.51846788 -131.44799805 106.17529297 C-131.86436523 105.15306641 -132.28073242 104.13083984 -132.7097168 103.07763672 C-136.08175031 93.96437143 -136.84937915 80.36617192 -132.79443359 71.37231445 C-132.45323486 70.66792236 -132.11203613 69.96353027 -131.76049805 69.23779297 C-131.435896 68.55958496 -131.11129395 67.88137695 -130.77685547 67.18261719 C-125.89841267 58.15005037 -118.46040376 51.46428603 -111.19799805 44.36279297 C-109.86965334 43.04596242 -108.54217244 41.7282599 -107.21557617 40.40966797 C-105.93835591 39.14586391 -104.66038705 37.88281584 -103.3815918 36.62060547 C-102.79188095 36.03828156 -102.2021701 35.45595764 -101.59458923 34.85598755 C-98.44552351 31.7789882 -95.20422265 28.98678934 -91.76049805 26.23779297 C-90.71123585 25.11716996 -89.69539466 23.96420011 -88.7175293 22.78076172 C-84.080119 17.36856917 -79.11005559 12.29222849 -74.10058594 7.2277832 C-72.99880792 6.10940283 -71.90242874 4.98567798 -70.81152344 3.85668945 C-50.53973611 -17.11464943 -22.45845661 -21.59051377 0 0 Z " fill="#FECB4D" transform="translate(138.760498046875,17.76220703125)"/>
<path d="M0 0 C1.75777021 1.73492156 3.49785656 3.48668946 5.23950195 5.23779297 C6.76314545 6.73890632 8.28795369 8.23883806 9.8137207 9.73779297 C22.26691824 22.03818279 22.26691824 22.03818279 26.65356445 27.22216797 C29.96309297 31.06596171 33.63432084 34.34632712 37.43334961 37.69824219 C42.36068708 42.15745259 47.02838598 46.87878556 51.71777344 51.58569336 C53.43157428 53.30487967 55.15069278 55.0186188 56.87036133 56.73193359 C62.02790326 61.88705533 67.0661053 67.06115256 71.80126953 72.61254883 C73.86092772 74.94002202 76.13745667 76.96118791 78.48950195 78.98779297 C81.48551082 81.57440932 83.91547198 84.0428774 86.23950195 87.23779297 C85.79038389 87.6160406 85.34126583 87.99428823 84.87853813 88.38399792 C78.68363148 93.69409776 72.92821753 99.41447081 67.17358398 105.19018555 C66.08228192 106.28177023 64.99075853 107.37313368 63.89903259 108.46429443 C60.95714071 111.4059012 58.01832718 114.35056564 55.08008432 117.29581666 C51.99854392 120.38364145 48.91413958 123.46860285 45.83004761 126.55387878 C39.9976761 132.38934984 34.16785638 138.22736325 28.3389653 144.06631058 C21.70704785 150.70942085 15.07227807 157.34967923 8.43726945 163.98970187 C-4.64581566 177.08279193 -17.72566918 190.17910544 -30.80322075 203.27772236 C-32.12183755 204.59822102 -33.44093998 205.9182349 -34.76049805 207.23779297 C-44.32712561 197.84440413 -44.32712561 197.84440413 -48.26049805 193.17529297 C-50.71721063 190.30291679 -53.31022631 187.79473586 -56.1550293 185.30810547 C-62.05946851 180.03978582 -67.65577421 174.49374691 -73.23876953 168.88989258 C-74.95257038 167.17070627 -76.67168887 165.45696714 -78.39135742 163.74365234 C-87.52992165 154.60871918 -87.52992165 154.60871918 -91.4362793 149.99169922 C-94.69444899 146.16610951 -98.36509153 142.92340578 -102.12866211 139.60302734 C-106.62568152 135.56155016 -110.87094884 131.27169717 -115.13549805 126.98779297 C-116.01077148 126.11638672 -116.88604492 125.24498047 -117.7878418 124.34716797 C-118.63217773 123.50154297 -119.47651367 122.65591797 -120.34643555 121.78466797 C-121.09973145 121.03024414 -121.85302734 120.27582031 -122.62915039 119.49853516 C-126.5693092 115.31916854 -129.30667511 111.51846788 -131.44799805 106.17529297 C-131.86436523 105.15306641 -132.28073242 104.13083984 -132.7097168 103.07763672 C-136.08175031 93.96437143 -136.84937915 80.36617192 -132.79443359 71.37231445 C-132.45323486 70.66792236 -132.11203613 69.96353027 -131.76049805 69.23779297 C-131.435896 68.55958496 -131.11129395 67.88137695 -130.77685547 67.18261719 C-125.89841267 58.15005037 -118.46040376 51.46428603 -111.19799805 44.36279297 C-109.86965334 43.04596242 -108.54217244 41.7282599 -107.21557617 40.40966797 C-105.93835591 39.14586391 -104.66038705 37.88281584 -103.3815918 36.62060547 C-102.79188095 36.03828156 -102.2021701 35.45595764 -101.59458923 34.85598755 C-98.44552351 31.7789882 -95.20422265 28.98678934 -91.76049805 26.23779297 C-90.71123585 25.11716996 -89.69539466 23.96420011 -88.7175293 22.78076172 C-84.080119 17.36856917 -79.11005559 12.29222849 -74.10058594 7.2277832 C-72.99880792 6.10940283 -71.90242874 4.98567798 -70.81152344 3.85668945 C-50.53973611 -17.11464943 -22.45845661 -21.59051377 0 0 Z " fill="#CAD4DB" transform="translate(138.760498046875,17.76220703125)"/>
<path d="M0 0 C7.12555544 8.57539731 11.17161371 18.66496791 15.3125 28.875 C16.22358324 31.08773443 17.13829107 33.29893096 18.05448914 35.509552 C18.61704352 36.87035806 19.17606975 38.2326305 19.73078918 39.59664917 C20.89995415 42.45469031 22.11910919 45.23118518 23.53393555 47.97729492 C25.22980042 51.47379833 26.40534162 55.0388214 27.53125 58.74609375 C27.76359848 59.49788406 27.99594696 60.24967438 28.2353363 61.02424622 C28.99600963 63.49359608 29.74822495 65.96542794 30.5 68.4375 C31.03065934 70.16699863 31.56134001 71.89649072 32.09204102 73.62597656 C34.85535948 82.67559909 37.5219501 91.74746105 40.05859375 100.86328125 C40.30288116 101.73991928 40.54716858 102.61655731 40.79885864 103.51976013 C41.96714412 107.72328271 43.12202764 111.92991528 44.2578125 116.14233398 C46.29329308 123.60417773 48.46291819 130.63042671 51.85961914 137.61279297 C53.61481515 141.28701831 54.93297163 145.08908646 56.25 148.9375 C56.50523437 149.66517578 56.76046875 150.39285156 57.0234375 151.14257812 C59.07884502 157.05457921 60.15426894 161.72597539 60.1875 168 C60.20167969 169.216875 60.21585938 170.43375 60.23046875 171.6875 C60.01261122 174.8187405 59.77088377 176.45839937 58 179 C52.76960344 182.48693104 46.09500932 181.67942971 40 181 C32.2621334 179.3246311 25.04950971 176.51074727 17.84326172 173.27015686 C6.36318883 168.16803293 -5.44075319 164.77810816 -17.54672241 161.49920654 C-23.41064458 159.90860917 -29.26176179 158.27225362 -35.11328125 156.63671875 C-36.24639236 156.3206366 -37.37950348 156.00455444 -38.54695129 155.67889404 C-47.16004428 153.26467282 -55.70224845 150.70776668 -64.1875 147.875 C-65.18587891 147.5457251 -66.18425781 147.2164502 -67.21289062 146.87719727 C-72.49896722 145.0674528 -77.38657659 142.8732807 -82.34545898 140.30761719 C-85.27682317 138.86363792 -88.24990205 137.61625271 -91.27734375 136.38671875 C-92.36853516 135.94263672 -93.45972656 135.49855469 -94.58398438 135.04101562 C-96.81225222 134.14166233 -99.04403427 133.25096544 -101.27929688 132.36914062 C-109.03421188 129.18939671 -115.44533836 125.21825038 -122 120 C-121.01 119.505 -121.01 119.505 -120 119 C-119.69537842 118.38552002 -119.39075684 117.77104004 -119.0769043 117.13793945 C-117.90591242 114.81321131 -116.6878328 113.53607064 -114.76953125 111.79296875 C-114.13080078 111.20580078 -113.49207031 110.61863281 -112.83398438 110.01367188 C-112.16689453 109.41103516 -111.49980469 108.80839844 -110.8125 108.1875 C-104.46465912 102.39548996 -98.21166878 96.61000399 -92.58984375 90.09765625 C-88.77358768 85.67888945 -84.70074044 81.5533917 -80.5625 77.4375 C-79.85029297 76.72142578 -79.13808594 76.00535156 -78.40429688 75.26757812 C-74.34157966 71.21224096 -70.17484997 67.34987061 -65.82836914 63.60131836 C-63.25794086 61.35009135 -60.85039171 58.98258364 -58.4375 56.5625 C-57.56996094 55.69753906 -56.70242188 54.83257812 -55.80859375 53.94140625 C-53.6812402 51.75988662 -51.67739898 49.49480618 -49.6875 47.1875 C-45.83213964 42.74530602 -41.73151139 38.58399648 -37.5625 34.4375 C-36.85029297 33.72142578 -36.13808594 33.00535156 -35.40429688 32.26757812 C-31.33142381 28.20210356 -27.15454815 24.32806269 -22.79711914 20.57006836 C-16.4889385 15.05887291 -10.74665351 8.91367018 -5.375 2.49609375 C-3.62021673 0.58676991 -2.6080271 0 0 0 Z " fill="#D99E81" transform="translate(448,327)"/>
<path d="M0 0 C1.50905549 1.48450021 3.00066209 2.98452011 4.48803711 4.49072266 C5.61384893 5.61621327 6.74013787 6.74122687 7.86694336 7.86572266 C8.7319043 8.73197266 9.59686523 9.59822266 10.48803711 10.49072266 C8.9313625 14.21500722 6.64780795 16.57754661 3.80575562 19.41351318 C3.32627114 19.89470651 2.84678666 20.37589983 2.35277236 20.87167478 C0.74681246 22.48092579 -0.86618528 24.08292972 -2.47924805 25.68505859 C-3.63266733 26.83791368 -4.78564629 27.99120944 -5.93821716 29.14491272 C-9.06783361 32.27510335 -12.20358144 35.39908608 -15.34045458 38.52200222 C-18.61785968 41.78691105 -21.88960786 45.05747851 -25.16195679 48.32745361 C-31.35922703 54.51850585 -37.56157823 60.70444186 -43.76576459 66.88856244 C-50.82886721 73.92931605 -57.88629662 80.97574454 -64.94325185 88.02265882 C-79.45984547 102.51834319 -93.9835597 117.00687518 -108.51196289 131.49072266 C-111.3314056 130.1318981 -113.39644309 128.85493125 -115.60571289 126.62744141 C-116.4390918 125.79116211 -116.4390918 125.79116211 -117.28930664 124.93798828 C-117.8577832 124.35726562 -118.42625977 123.77654297 -119.01196289 123.17822266 C-119.58043945 122.60910156 -120.14891602 122.03998047 -120.73461914 121.45361328 C-125.64132754 116.49567474 -129.57010889 111.98916593 -132.19946289 105.42822266 C-132.61583008 104.40599609 -133.03219727 103.38376953 -133.46118164 102.33056641 C-136.83321515 93.21730111 -137.60084399 79.61910161 -133.54589844 70.62524414 C-133.20469971 69.92085205 -132.86350098 69.21645996 -132.51196289 68.49072266 C-132.18736084 67.81251465 -131.86275879 67.13430664 -131.52832031 66.43554688 C-126.64987751 57.40298006 -119.2118686 50.71721572 -111.94946289 43.61572266 C-110.62111818 42.29889211 -109.29363729 40.98118959 -107.96704102 39.66259766 C-106.68982075 38.39879359 -105.4118519 37.13574552 -104.13305664 35.87353516 C-103.54334579 35.29121124 -102.95363495 34.70888733 -102.34605408 34.10891724 C-99.19698835 31.03191788 -95.95568749 28.23971903 -92.51196289 25.49072266 C-91.46270069 24.37009965 -90.4468595 23.2171298 -89.46899414 22.03369141 C-84.83158384 16.62149885 -79.86152043 11.54515818 -74.85205078 6.48071289 C-73.75027276 5.36233251 -72.65389358 4.23860767 -71.56298828 3.10961914 C-50.68660403 -18.48718047 -22.7246917 -21.7838493 0 0 Z " fill="#E9596E" transform="translate(139.511962890625,18.50927734375)"/>
<path d="M0 0 C6.32532275 4.39497902 11.67248457 9.45050476 17 15 C-23.33333333 55.33333333 -63.66666667 95.66666667 -104 136 C-105.58651682 134.44073252 -107.16907315 132.87743482 -108.75 131.3125 C-109.63171875 130.44238281 -110.5134375 129.57226562 -111.421875 128.67578125 C-113.78805298 126.21997532 -115.91892556 123.69858952 -118 121 C-116.45292795 117.31339503 -114.21843775 114.97417682 -111.40037537 112.16659546 C-110.92976356 111.69498037 -110.45915176 111.22336528 -109.97427899 110.73745883 C-108.39828515 109.1605134 -106.81525988 107.59082308 -105.23217773 106.02099609 C-104.10007809 104.89109793 -102.96842603 103.76075115 -101.83718872 102.62998962 C-99.40155376 100.19728723 -96.96279645 97.76777437 -94.52157402 95.34067917 C-90.66412915 91.50548961 -86.81377501 87.66323429 -82.96437073 83.81997681 C-76.87786545 77.74485187 -70.78670491 71.67441919 -64.69350535 65.60600913 C-53.77405931 54.73090681 -42.86020965 43.85019497 -31.95153767 32.96428549 C-28.12087362 29.14204582 -24.28741907 25.32263299 -20.45172298 21.50544333 C-18.07053718 19.1348746 -15.69135994 16.76229767 -13.31268692 14.38920784 C-12.20616443 13.28616579 -11.09877076 12.1839969 -9.99046135 11.08275032 C-8.48223067 9.58392294 -6.97706916 8.08207985 -5.47264099 6.57943726 C-4.62811088 5.73842657 -3.78358076 4.89741589 -2.91345882 4.03092003 C-0.95241689 2.1447079 -0.95241689 2.1447079 0 0 Z " fill="#CBD5DB" transform="translate(208,89)"/>
<path d="M0 0 C1.12061838 0.95329336 2.24021253 1.9077908 3.359375 2.86279297 C3.98295898 3.39419891 4.60654297 3.92560486 5.24902344 4.47311401 C7.2931764 6.25565558 9.17802369 8.11594576 11 10.125 C11.598125 10.76695313 12.19625 11.40890625 12.8125 12.0703125 C14 14 14 14 13.85934544 15.81293106 C12.65366348 18.88144048 10.77132158 20.59692865 8.43797302 22.92279053 C7.95934297 23.40398385 7.48071292 23.88517718 6.98757893 24.38095212 C5.38084531 25.99262985 3.76361891 27.59334643 2.14624023 29.19433594 C0.99275377 30.34697627 -0.16007267 31.50027744 -1.31228638 32.65419006 C-4.4438742 35.78663979 -7.58463584 38.9097439 -10.72709775 42.03127956 C-14.00895693 45.29440457 -17.28234116 48.5660083 -20.55662537 51.83673096 C-26.75902043 58.02979598 -32.96902427 64.215173 -39.18178266 70.39783978 C-46.25408063 77.43662363 -53.31787761 84.48391222 -60.38096535 91.53193617 C-74.91118926 106.03078933 -89.45208171 120.5189026 -104 135 C-105.28191249 134.05043607 -106.5621982 133.09867575 -107.84179688 132.14599609 C-108.55493042 131.61622162 -109.26806396 131.08644714 -110.00280762 130.5406189 C-112.3535539 128.72727123 -114.43875667 126.75985917 -116.5 124.625 C-117.1703125 123.93664062 -117.840625 123.24828125 -118.53125 122.5390625 C-119.25828125 121.77722656 -119.25828125 121.77722656 -120 121 C-114.66953574 114.5288572 -108.78625895 108.65180411 -102.85400391 102.74047852 C-101.72976548 101.61652258 -100.60574803 100.49234558 -99.48193359 99.3679657 C-96.44743003 96.33317655 -93.40986463 93.3014692 -90.37171984 90.2703259 C-87.19086937 87.0957488 -84.01287177 83.91831831 -80.83456421 80.74119568 C-74.82313803 74.7328711 -68.80916846 68.72709908 -62.79426992 62.72225088 C-55.94342754 55.88260608 -49.09544214 49.04010385 -42.24768949 42.19736588 C-28.16829211 28.12840637 -14.08532944 14.06302038 0 0 Z " fill="#CBD4DB" transform="translate(150,30)"/>
<path d="M0 0 C3.76177837 0.56384597 5.4585605 2.10821601 8.0625 4.8125 C9.06990234 5.84310547 9.06990234 5.84310547 10.09765625 6.89453125 C13.7907843 10.98199741 13.7907843 10.98199741 15 13 C14.68292094 17.10228558 12.25222792 19.11756532 9.43797302 21.92279053 C8.95934297 22.40398385 8.48071292 22.88517718 7.98757893 23.38095212 C6.38084531 24.99262985 4.76361891 26.59334643 3.14624023 28.19433594 C1.99275377 29.34697627 0.83992733 30.50027744 -0.31228638 31.65419006 C-3.4438742 34.78663979 -6.58463584 37.9097439 -9.72709775 41.03127956 C-13.00895693 44.29440457 -16.28234116 47.5660083 -19.55662537 50.83673096 C-25.75902043 57.02979598 -31.96902427 63.215173 -38.18178266 69.39783978 C-45.25408063 76.43662363 -52.31787761 83.48391222 -59.38096535 90.53193617 C-73.91118926 105.03078933 -88.45208171 119.5189026 -103 134 C-104.28191249 133.05043607 -105.5621982 132.09867575 -106.84179688 131.14599609 C-107.55493042 130.61622162 -108.26806396 130.08644714 -109.00280762 129.5406189 C-111.3535539 127.72727123 -113.43875667 125.75985917 -115.5 123.625 C-116.1703125 122.93664062 -116.840625 122.24828125 -117.53125 121.5390625 C-118.25828125 120.77722656 -118.25828125 120.77722656 -119 120 C-115.70661468 116.70598357 -112.41182658 113.41338129 -109.11553955 110.12226868 C-108.14965022 109.15784491 -107.18376394 108.19341807 -106.21788025 107.22898865 C-105.45366414 106.46593572 -105.45366414 106.46593572 -104.67400932 105.68746758 C-92.92722406 93.95839556 -81.18333006 82.22643209 -69.44104385 70.49285603 C-62.65524423 63.7122256 -55.86850014 56.93254538 -49.07958984 50.1550293 C-43.1483469 44.23373582 -37.21884849 38.31070199 -31.29146075 32.38554925 C-28.15560643 29.25100034 -25.01887277 26.11734274 -21.88004303 22.98577309 C-18.93287548 20.04536927 -15.98803705 17.10265329 -13.04500389 14.15811157 C-11.96265899 13.07604272 -10.87945111 11.99483631 -9.79533577 10.91454124 C-8.32009032 9.44424197 -6.84792873 7.97092364 -5.37652588 6.4967804 C-4.55064091 5.67181722 -3.72475594 4.84685404 -2.87384415 3.99689198 C-0.94909165 2.13645446 -0.94909165 2.13645446 0 0 Z " fill="#99AAB5" transform="translate(193,75)"/>
<path d="M0 0 C5.91712679 4.15457839 11.01139933 8.77258334 16 14 C10.72392156 20.3863165 4.94106836 26.2281141 -0.89892578 32.09179688 C-1.99692802 33.19771436 -3.09475236 34.30380849 -4.19241333 35.4100647 C-7.77299717 39.01666343 -11.35885446 42.61799401 -14.9453125 46.21875 C-16.18284614 47.46164826 -17.42037332 48.70455296 -18.65789413 49.94746399 C-23.80123958 55.1123912 -28.94600417 60.27589779 -34.09449959 65.43569183 C-41.4656048 72.82308529 -48.82804906 80.21887867 -56.17886746 87.62646055 C-61.35585121 92.84205653 -66.54230192 98.04811539 -71.73597705 103.24708986 C-74.8364074 106.35118019 -77.93248081 109.45934767 -81.01852798 112.57774353 C-83.91500899 115.50415822 -86.82297535 118.41863613 -89.74036789 121.32419968 C-90.81060085 122.39421079 -91.87653516 123.4685407 -92.93788147 124.5473671 C-94.38316457 126.01515697 -95.84288061 127.46685005 -97.30740356 128.91540527 C-98.12184999 129.73316185 -98.93629642 130.55091843 -99.77542305 131.39345551 C-102 133 -102 133 -104.10481071 132.91178131 C-107.30605238 131.37165424 -109.71097811 128.87022312 -112.25 126.4375 C-112.80429688 125.91736328 -113.35859375 125.39722656 -113.9296875 124.86132812 C-115.29256828 123.58069015 -116.64711683 122.2911951 -118 121 C-116.45292795 117.31339503 -114.21843775 114.97417682 -111.40037537 112.16659546 C-110.92976356 111.69498037 -110.45915176 111.22336528 -109.97427899 110.73745883 C-108.39828515 109.1605134 -106.81525988 107.59082308 -105.23217773 106.02099609 C-104.10007809 104.89109793 -102.96842603 103.76075115 -101.83718872 102.62998962 C-99.40155376 100.19728723 -96.96279645 97.76777437 -94.52157402 95.34067917 C-90.66412915 91.50548961 -86.81377501 87.66323429 -82.96437073 83.81997681 C-76.87786545 77.74485187 -70.78670491 71.67441919 -64.69350535 65.60600913 C-53.77405931 54.73090681 -42.86020965 43.85019497 -31.95153767 32.96428549 C-28.12087362 29.14204582 -24.28741907 25.32263299 -20.45172298 21.50544333 C-18.07053718 19.1348746 -15.69135994 16.76229767 -13.31268692 14.38920784 C-12.20616443 13.28616579 -11.09877076 12.1839969 -9.99046135 11.08275032 C-8.48223067 9.58392294 -6.97706916 8.08207985 -5.47264099 6.57943726 C-4.62811088 5.73842657 -3.78358076 4.89741589 -2.91345882 4.03092003 C-0.95241689 2.1447079 -0.95241689 2.1447079 0 0 Z " fill="#99AAB5" transform="translate(164,45)"/>
<path d="M0 0 C3.17503174 6.50460042 5.85141583 13.11520164 8.25 19.9375 C8.63696045 21.03759399 8.63696045 21.03759399 9.03173828 22.15991211 C11.07930048 28.06759904 12.15430015 32.73186866 12.1875 39 C12.20167969 40.216875 12.21585937 41.43375 12.23046875 42.6875 C12.01261122 45.8187405 11.77088377 47.45839937 10 50 C4.45456612 53.69695592 -3.57544706 52.8513717 -10.00976562 51.61328125 C-20.43876314 49.03439957 -30.27972602 44.485286 -40 40 C-39.57812807 28.90476812 -36.90065859 19.14645686 -29 11 C-20.44442559 4.02639973 -11.06279959 -0.07424698 0 0 Z " fill="#2A3033" transform="translate(496,456)"/>
</svg>
